<?xml version="1.0" encoding="UTF-8"?>
<svg width="400" height="300" viewBox="0 0 400 300" fill="none" xmlns="http://www.w3.org/2000/svg">
  <!-- Background Elements -->
  <circle cx="200" cy="150" r="120" fill="#E3F2FD" opacity="0.5"/>
  <circle cx="200" cy="150" r="100" fill="#BBDEFB" opacity="0.3"/>
  
  <!-- Dashboard Elements -->
  <rect x="100" y="80" width="200" height="140" rx="10" fill="white" stroke="#2196F3" stroke-width="2"/>
  
  <!-- Chart Bars -->
  <rect x="120" y="120" width="20" height="60" fill="#2196F3"/>
  <rect x="150" y="100" width="20" height="80" fill="#4CAF50"/>
  <rect x="180" y="130" width="20" height="50" fill="#FFC107"/>
  <rect x="210" y="110" width="20" height="70" fill="#9C27B0"/>
  
  <!-- Icons -->
  <circle cx="120" cy="60" r="15" fill="#2196F3"/>
  <circle cx="160" cy="60" r="15" fill="#4CAF50"/>
  <circle cx="200" cy="60" r="15" fill="#FFC107"/>
  <circle cx="240" cy="60" r="15" fill="#9C27B0"/>
  
  <!-- Decorative Elements -->
  <path d="M50 50 Q100 100 150 50" stroke="#2196F3" stroke-width="2" fill="none"/>
  <path d="M250 50 Q300 100 350 50" stroke="#4CAF50" stroke-width="2" fill="none"/>
  <path d="M50 250 Q100 200 150 250" stroke="#FFC107" stroke-width="2" fill="none"/>
  <path d="M250 250 Q300 200 350 250" stroke="#9C27B0" stroke-width="2" fill="none"/>
</svg> 