<?xml version="1.0" encoding="UTF-8"?>
<svg width="400" height="300" viewBox="0 0 400 300" fill="none" xmlns="http://www.w3.org/2000/svg">
  <!-- Background Elements -->
  <circle cx="200" cy="150" r="120" fill="#E3F2FD" opacity="0.3"/>
  <circle cx="200" cy="150" r="100" fill="#E3F2FD" opacity="0.2"/>
  
  <!-- Main Dashboard Frame -->
  <rect x="80" y="80" width="240" height="140" rx="12" fill="#2196F3" opacity="0.1"/>
  
  <!-- Dashboard Content -->
  <rect x="100" y="100" width="200" height="100" rx="8" fill="#2196F3" opacity="0.15"/>
  
  <!-- Data Visualization -->
  <path d="M120 160 L140 140 L160 150 L180 130 L200 145 L220 135 L240 155" 
        stroke="#2196F3" stroke-width="3" fill="none"/>
  
  <!-- Data Points -->
  <circle cx="140" cy="140" r="4" fill="#2196F3"/>
  <circle cx="160" cy="150" r="4" fill="#2196F3"/>
  <circle cx="180" cy="130" r="4" fill="#2196F3"/>
  <circle cx="200" cy="145" r="4" fill="#2196F3"/>
  <circle cx="220" cy="135" r="4" fill="#2196F3"/>
  
  <!-- Dashboard Icons -->
  <circle cx="120" cy="100" r="8" fill="#2196F3" opacity="0.3"/>
  <circle cx="140" cy="100" r="8" fill="#2196F3" opacity="0.3"/>
  <circle cx="160" cy="100" r="8" fill="#2196F3" opacity="0.3"/>
  
  <!-- Decorative Elements -->
  <circle cx="80" cy="200" r="15" fill="#2196F3" opacity="0.1"/>
  <circle cx="320" cy="200" r="15" fill="#2196F3" opacity="0.1"/>
  <circle cx="200" cy="240" r="20" fill="#2196F3" opacity="0.1"/>
  
  <!-- Floating Elements -->
  <rect x="60" y="60" width="40" height="40" rx="8" fill="#2196F3" opacity="0.1" transform="rotate(-15)"/>
  <rect x="300" y="60" width="40" height="40" rx="8" fill="#2196F3" opacity="0.1" transform="rotate(15)"/>
</svg> 